<svg width="17" height="17" viewBox="0 0 17 17" fill="none" xmlns="http://www.w3.org/2000/svg">
<g id="Group 8">
<path id="Vector" d="M8.51959 0.75V0.74979L8.52983 0.750214C18.8235 1.17571 18.8233 15.8246 8.52978 16.2497L8.52979 16.2499L8.52051 16.2499C6.85205 16.257 5.22768 15.7199 3.89436 14.7216C3.19379 14.6956 2.49225 14.7343 1.79872 14.8373L1.79873 14.8373L1.79286 14.8381C1.65744 14.8549 1.51996 14.8348 1.395 14.78C1.27004 14.7251 1.16222 14.6375 1.08305 14.5263C1.00388 14.4152 0.956325 14.2846 0.945511 14.1486C0.934697 14.0125 0.961037 13.8761 1.02169 13.7538L1.02165 13.7538L1.02363 13.75C1.29032 13.2349 1.50347 12.694 1.65979 12.1358C1.04259 10.9784 0.729628 9.68311 0.751059 8.37118C0.773045 7.02524 1.14622 5.70828 1.83377 4.55005C2.52131 3.39182 3.49949 2.43231 4.67185 1.766C5.8442 1.09969 7.17035 0.749538 8.51959 0.75ZM1.49549 14.5511C1.57918 14.5878 1.67129 14.6012 1.76203 14.59L1.92742 12.1049C1.76438 12.7144 1.5358 13.3045 1.24565 13.8649C1.2051 13.9467 1.1875 14.0378 1.19473 14.1288C1.20195 14.2197 1.23373 14.307 1.28668 14.3813C1.33964 14.4557 1.4118 14.5143 1.49549 14.5511Z" stroke="white" stroke-width="0.5"/>
<path id="Line 1" d="M9 7H13" stroke="white" stroke-width="0.5" stroke-linecap="round"/>
<path id="Line 2" d="M4 9L13 9" stroke="white" stroke-width="0.5" stroke-linecap="round"/>
<path id="Line 3" d="M4 11L13 11" stroke="white" stroke-width="0.5" stroke-linecap="round"/>
</g>
</svg>
